<?xml version="1.0" encoding="UTF-8"?>
<svg width="32px" height="32px" viewBox="0 0 32 32" version="1.1" xmlns="http://www.w3.org/2000/svg" xmlns:xlink="http://www.w3.org/1999/xlink">
    <title>subjoin</title>
    <g id="Page-1" stroke="none" stroke-width="1" fill="none" fill-rule="evenodd">
        <g id="subjoin">
            <rect id="Rectangle" stroke="#979797" stroke-width="0.142857143" x="0.0714285714" y="0.0714285714" width="31.8571429" height="31.8571429"></rect>
            <g id="Group" transform="translate(2.3273, 1.9091)">
                <g id="྄" transform="translate(9.5402, 2.3805)" fill="#000000" fill-rule="nonzero">
                    <path d="M4.02950649,0 C4.42846753,0 4.62794805,0.186181818 4.62794805,0.558545455 C4.62794805,0.944207792 4.42846753,1.13703896 4.02950649,1.13703896 C3.65714286,1.13703896 3.47096104,0.944207792 3.47096104,0.558545455 C3.47096104,0.186181818 3.65714286,0 4.02950649,0 Z M6.62275325,0.977454545 C7.00841558,0.977454545 7.20124675,1.17028571 7.20124675,1.55594805 C7.20124675,1.94161039 7.00841558,2.13444156 6.62275325,2.13444156 C6.23709091,2.13444156 6.04425974,1.94161039 6.04425974,1.55594805 C6.04425974,1.17028571 6.23709091,0.977454545 6.62275325,0.977454545 Z M1.45620779,0.977454545 C1.84187013,0.977454545 2.0347013,1.17028571 2.0347013,1.55594805 C2.0347013,1.94161039 1.84187013,2.13444156 1.45620779,2.13444156 C1.08384416,2.13444156 0.897662338,1.94161039 0.897662338,1.55594805 C0.897662338,1.17028571 1.08384416,0.977454545 1.45620779,0.977454545 Z M0.578493506,3.47096104 C0.950857143,3.47096104 1.13703896,3.65714286 1.13703896,4.02950649 C1.13703896,4.41516883 0.950857143,4.608 0.578493506,4.608 C0.192831169,4.608 0,4.41516883 0,4.02950649 C0,3.65714286 0.192831169,3.47096104 0.578493506,3.47096104 Z M7.52041558,3.47096104 C7.90607792,3.47096104 8.09890909,3.65714286 8.09890909,4.02950649 C8.09890909,4.41516883 7.90607792,4.608 7.52041558,4.608 C7.13475325,4.608 6.94192208,4.41516883 6.94192208,4.02950649 C6.94192208,3.65714286 7.13475325,3.47096104 7.52041558,3.47096104 Z M1.45620779,5.94451948 C1.84187013,5.94451948 2.0347013,6.13735065 2.0347013,6.52301299 C2.0347013,6.90867532 1.84187013,7.10150649 1.45620779,7.10150649 C1.08384416,7.10150649 0.897662338,6.90867532 0.897662338,6.52301299 C0.897662338,6.13735065 1.08384416,5.94451948 1.45620779,5.94451948 Z M6.62275325,5.94451948 C7.00841558,5.94451948 7.20124675,6.13735065 7.20124675,6.52301299 C7.20124675,6.90867532 7.00841558,7.10150649 6.62275325,7.10150649 C6.23709091,7.10150649 6.04425974,6.90867532 6.04425974,6.52301299 C6.04425974,6.13735065 6.23709091,5.94451948 6.62275325,5.94451948 Z M4.02950649,6.94192208 C4.42846753,6.94192208 4.62794805,7.13475325 4.62794805,7.52041558 C4.62794805,7.90607792 4.42846753,8.09890909 4.02950649,8.09890909 C3.65714286,8.09890909 3.47096104,7.90607792 3.47096104,7.52041558 C3.47096104,7.13475325 3.65714286,6.94192208 4.02950649,6.94192208 Z" id="Shape"></path>
                    <path d="M10.0937143,13.5048312 L9.29579221,14.0035325 C8.48457143,13.2455065 7.76976623,12.657039 7.15137662,12.2381299 C6.53298701,11.8192208 5.97444156,11.5266494 5.47574026,11.3604156 C4.97703896,11.1941818 4.49496104,11.1110649 4.02950649,11.1110649 C3.86992208,11.1110649 3.71366234,11.1177143 3.56072727,11.131013 C3.40779221,11.1443117 3.25818182,11.1642597 3.1118961,11.1908571 L3.21163636,9.43542857 C3.47761039,9.35563636 3.77683117,9.31574026 4.1092987,9.31574026 C4.50825974,9.31574026 4.9038961,9.37225974 5.29620779,9.4852987 C5.68851948,9.59833766 6.11075325,9.80114286 6.56290909,10.0937143 C7.01506494,10.3862857 7.52706494,10.8085195 8.09890909,11.3604156 C8.67075325,11.9123117 9.33568831,12.6271169 10.0937143,13.5048312 Z" id="Path"></path>
                </g>
                <polygon id="Line-2" stroke="#000000" stroke-width="1.2" stroke-linecap="square" stroke-linejoin="round" points="20.9100138 10.3959391 27.2893401 10.3959391 13.5856022 23.2727273 1.4083489e-15 10.3959391 6.14305491 10.3959391 6.14305491 -1.41265422e-18 20.9100138 -1.41265422e-18"></polygon>
            </g>
        </g>
    </g>
</svg>